# xmcd
#
# Track frame offsets:
#	150
#	14463
#	32552
#	49480
#	61817
#	81099
#	93224
#	109304
#	127275
#	143954
#	160644
#	172641
#	178093
#	182650
#	187960
#	192312
#	196932
#	201886
#	219678
#	239048
#	251507
#	263878
#	280554
#	286277
#	291878
#
# Disc length: 3962 seconds
#
# Revision: 0
# Processed by: cddbd v1.5.2PL0 Copyright (c) Steve Scherf et al.
# Submitted via: EasyCDDAExtractor 16.0.6.1
#
DISCID=740f7819
DTITLE=Συλλογικός δίσκος - Τα ωραιότερα ελλ. ελαφρά τραγούδια 07
DYEAR=2010
DGENRE=Ελαφρά
TTITLE0=Λήδα - Θυμήσου τον Σεπτέμβρη [Μ. Σουγιούλ-Γ. Παπαστεφάνου]
TTITLE1=Χρυσός Τέρης-Δενάρδου Κλειώ - Θέλω κοντά σου να μείνω [Γ. Μουζάκης-Γ. 
TTITLE1=Γιαννακόπουλος]
TTITLE2=Παναγόπουλος Σώτος-Ζήλια Άντζελα - Κάποιο δειλινό [Γιώργος Μουζάκης]
TTITLE3=Φρύνη - Λίγες καρδιές αγαπούνε [Μ. Σουγιούλ-Κ. Κοφινιώτης]
TTITLE4=Χρυσός Τέρης - Νυχτώνει [Γιώργος Μουζάκης]
TTITLE5=Γιοβάννα-Μάνου Αφροδίτη - Κι όμως υπάρχει χαρά [Σπήλιος Μεντής]
TTITLE6=Παρούσης Σταύρος - Σερενάτα [Αττίκ]
TTITLE7=Δενάρδου Κλειώ - Το τανγκό της ψαροπούλας[Χ.Χαιρόπουλος-Χ.Γιαννακόπουλ
TTITLE7=ος/Α.Σακελλάριος]
TTITLE8=Μαρούδας Τώνης - Θα είσαι μήπως εσύ [Γ. Μουζάκης-Α. Δημόπουλος]
TTITLE9=Ζήλια Άντζελα-Βογιατζής Γιάννης - Σκληρή καρδιά [Θ. Παπαδόπουλος-Κίτσα
TTITLE9=Κορίνα]
TTITLE10=Μάνου Αφροδίτη - Καλοκαιράκι [Σπήλιος Μεντής]
TTITLE11=Παρούσης Σταύρος - Απόψε μελαγχόλησα [Μ.Σουγιούλ-Γιαννακόπουλος/Σακελ
TTITLE11=λάριος/Κυπαρίσσης]
TTITLE12=Παρούσης Σταύρος - Κορίτσι άπονο [Μ. Μάτσας-Σ. Περιστέρης]
TTITLE13=Παρούσης Σταύρος - Πες μου γιατί [Κ. Γιαννίδης-Β.Σπυρόπουλος/Π.Παπαδο
TTITLE13=ύκας]
TTITLE14=Κορώνη Γεωργία - Κλαίς [Λεό Ραπίτης-Κ. Κοφινιώτης]
TTITLE15=Κορώνη Γεωργία - Μη μού θυμίζεις [Κ. Σεϊτανίδης-Κ. Κοφινιώτης]
TTITLE16=Κορώνη Γεωργία - Πάμε σαν άλλοτε [Μ. Σουγιουλ-Κ. Γιαννίδης]
TTITLE17=Παναγόπουλος Σώτος - Θα σε λατρεύω [Τ. Μωράκης-Κ. Κοφινιώτης]
TTITLE18=Γιοβάννα - Καπετάν Φαφαλιός [Κ. Καπνίσης-Γ. Ιωαννίδης]
TTITLE19=Κορώνη Γεωργία - Μαννούλα μου [Μ. Χατζιδάκις-Ι. Καμπανέλλης]
TTITLE20=Προέδρου Βέττα - Καλώς ήλθες στα όνειρά μου [Χ. Χαιρόπουλος-Γ. Φερμάν
TTITLE20=ογλου]
TTITLE21=Ζορμπαλά Μαργαρίτα - Συγγνώμη σού ζητώ [Κ. Γιαννίδης-Α. Σακελλάριος]
TTITLE22=Κορώνη Γεωργία-Παρούσης Σταύρος - Θά 'ρθω μιά νύχτα με φεγγάρι[Κ.Γιαν
TTITLE22=νίδης-Ασημακόπουλος/Βιτάλης/Ρηγόπουλος]
TTITLE23=Κορώνη Γεωργία-Παρούσης Σταύρος - Σπιτάκι μου παλιό [Κ.Γιαννίδης-Δ.Ευ
TTITLE23=αγγελίδης/Α.Σακελλάριος]
TTITLE24=Κορώνη Γεωργία-Παρούσης Σταύρος - Μοναξιά [Eduardo Biango,διασκ.Α.Σακ
TTITLE24=ελλάριος-Δ.Ευαγγελίδης]
EXTD=
EXTT0=
EXTT1=
EXTT2=
EXTT3=
EXTT4=
EXTT5=
EXTT6=
EXTT7=
EXTT8=
EXTT9=
EXTT10=
EXTT11=
EXTT12=
EXTT13=
EXTT14=
EXTT15=
EXTT16=
EXTT17=
EXTT18=
EXTT19=
EXTT20=
EXTT21=
EXTT22=
EXTT23=
EXTT24=
PLAYORDER=
